Coordinates
version=1
nRows=8
nColumns=36
inDegrees=yes

Units are S.I. units (second, meters, Newtons, ...)
If the header above contains a line with 'inDegrees', this indicates whether rotational values are in degrees (yes) or radians (no).

endheader
time	pelvis_tilt	pelvis_list	pelvis_rotation	pelvis_tx	pelvis_ty	pelvis_tz	hip_flexion_r	hip_adduction_r	hip_rotation_r	knee_angle_r	knee_angle_r_beta	ankle_angle_r	subtalar_angle_r	mtp_angle_r	hip_flexion_l	hip_adduction_l	hip_rotation_l	knee_angle_l	knee_angle_l_beta	ankle_angle_l	subtalar_angle_l	mtp_angle_l	lumbar_extension	lumbar_bending	lumbar_rotation	arm_flex_r	arm_add_r	arm_rot_r	elbow_flex_r	pro_sup_r	arm_flex_l	arm_add_l	arm_rot_l	elbow_flex_l	pro_sup_l
      0.00000000	     -0.35891503	     -0.39138951	     -4.10040445	     -0.05093904	      1.19752638	     -0.07607362	     -0.78382535	     -0.30990915	     -7.40744366	      8.02018413	      0.13997862	     10.44622858	     -1.98748948	     -6.62906063	     -1.03582367	     -3.24590712	    -10.40486439	      4.56473707	      0.07966969	      6.57324704	     -5.34886937	     -6.62906063	     -4.82093243	      0.55850589	     -4.79569650	      5.04113120	     -8.82489908	     19.46928097	     23.98364277	     73.58747149	      2.15332732	     -9.87239884	     22.83703439	     28.05145272	     66.86223391
      0.01666670	     -1.75823038	      0.23383587	     -4.56143797	     -0.04982182	      1.19725442	     -0.07689667	      1.23113204	     -0.77437748	     -6.78444826	      8.86815678	      0.15477853	     13.32036671	     -0.75535909	     -6.91106857	      0.39600711	     -2.21885378	    -13.64976349	      4.27520833	      0.07461646	      7.29916026	     -3.38810516	     -6.91106857	     -2.72913827	      0.14677485	     -4.49150193	      4.48527290	     -8.21999935	     16.28776203	     23.71948973	     74.90094303	      2.26190598	     -9.28747610	     22.34329613	     27.15900266	     69.40054177
      0.03333330	     -2.05809709	      1.10799845	     -4.99772334	     -0.04942653	      1.19773261	     -0.07606434	      1.43580784	     -1.63156323	     -7.17039532	      8.46977117	      0.14782539	     13.31986820	     -0.41741700	     -7.01120872	      0.59090823	     -1.31153631	    -15.87357047	      4.02054305	      0.07017171	      7.37206555	     -2.49355416	     -7.01120872	     -2.05789814	     -0.97829707	     -4.33531049	      4.55154848	     -7.64510393	     14.62265889	     23.71607359	     73.89477814	      2.32768969	     -9.55804010	     21.95780113	     26.72368949	     69.15657315
      0.05000000	     -1.68834683	      1.58419200	     -5.14967259	     -0.05038404	      1.19917242	     -0.07627498	      0.92730267	     -2.19419911	     -7.22457667	      7.96261583	      0.13897386	     13.55749874	      0.05544315	     -7.19670040	     -0.21827124	     -0.60058247	    -17.09560353	      3.12809021	      0.05459547	      6.95439541	     -2.14316285	     -7.19670040	     -2.40698445	     -1.63279247	     -3.54779741	      3.71682322	     -6.99742846	      9.14558933	     24.89123440	     76.79353522	      2.97905314	     -9.51415802	     21.96337766	     26.11974684	     72.20821046
      0.06666670	     -1.51197280	      1.83720992	     -5.14846033	     -0.05138841	      1.19878454	     -0.07642425	      0.52521561	     -2.41771481	     -7.08706990	      7.43946793	      0.12984321	     13.41858017	      0.10973130	     -7.30451098	     -0.58111659	     -0.17824751	    -17.85212331	      2.53580868	      0.04425821	      6.78867814	     -1.56469641	     -7.30451098	     -2.65793145	     -1.90996712	     -3.48917216	      3.48429151	     -6.63810493	      7.28408769	     25.72671907	     75.71988412	      3.02779661	     -9.45262999	     20.89613810	     26.39871014	     71.30103559
      0.08333330	     -1.31508388	      1.92816172	     -4.98050263	     -0.05109691	      1.19911316	     -0.07644727	      0.09800514	     -2.51132482	     -7.08103289	      6.98899814	      0.12198103	     13.29957996	      0.03709465	     -7.36283941	     -0.90420560	      0.04370730	    -17.88724696	      2.30650096	      0.04025604	      6.40133863	     -1.92892948	     -7.36283941	     -2.92357588	     -1.98096039	     -3.54058146	      3.39119104	     -6.34499341	      6.18690673	     26.32714323	     73.05083965	      3.02541473	     -9.33506584	     19.76972097	     26.86733652	     69.25753408
      0.10000000	     -1.32908249	      1.90320613	     -5.03357507	     -0.05142562	      1.19797210	     -0.07635958	      0.01452722	     -2.46954853	     -6.77042654	      6.78672916	      0.11845077	     13.02381758	     -0.31149587	     -7.43811473	     -0.96882464	      0.06887884	    -18.62838664	      2.22038084	      0.03875296	      6.51838983	     -1.18207833	     -7.43811473	     -2.90621534	     -1.90273803	     -3.17065355	      3.18863606	     -6.22860089	      4.47165821	     26.87061641	     77.86158641	      3.25590051	     -9.21236874	     19.23197914	     26.84710857	     71.95927424
      0.11666670	     -1.24160093	      1.87221417	     -4.99700979	     -0.05170451	      1.19850540	     -0.07630936	     -0.14842417	     -2.43643235	     -6.65023570	      6.67084981	      0.11642829	     12.81086593	     -0.65282877	     -7.47342930	     -1.07385490	      0.07900794	    -18.81570561	      2.18715476	      0.03817305	      6.39058093	     -1.10428199	     -7.47342930	     -3.02166655	     -1.85574633	     -3.14476507	      3.36858506	     -6.44389711	      6.39096289	     27.03189771	     73.48551238	      3.38952421	     -9.30413306	     19.97874181	     27.21622703	     68.68668453
